<svg id="visual" viewBox="0 0 900 600" width="900" height="600" xmlns="http://www.w3.org/2000/svg" xmlns:xlink="http://www.w3.org/1999/xlink" version="1.1"><rect x="0" y="0" width="900" height="600" fill="#010910"></rect><path d="M386 0L277 0L277 26L244 26L244 52L336 52L336 78L316 78L316 104L248 104L248 130L326 130L326 157L166 157L166 183L70 183L70 209L317 209L317 235L179 235L179 261L136 261L136 287L342 287L342 313L288 313L288 339L276 339L276 365L204 365L204 391L406 391L406 417L385 417L385 443L336 443L336 470L118 470L118 496L333 496L333 522L79 522L79 548L72 548L72 574L169 574L169 600L0 600L0 574L0 574L0 548L0 548L0 522L0 522L0 496L0 496L0 470L0 470L0 443L0 443L0 417L0 417L0 391L0 391L0 365L0 365L0 339L0 339L0 313L0 313L0 287L0 287L0 261L0 261L0 235L0 235L0 209L0 209L0 183L0 183L0 157L0 157L0 130L0 130L0 104L0 104L0 78L0 78L0 52L0 52L0 26L0 26L0 0L0 0Z" fill="#049665"></path><path d="M266 0L184 0L184 26L58 26L58 52L214 52L214 78L110 78L110 104L57 104L57 130L264 130L264 157L253 157L253 183L177 183L177 209L65 209L65 235L265 235L265 261L250 261L250 287L75 287L75 313L75 313L75 339L120 339L120 365L46 365L46 391L200 391L200 417L210 417L210 443L98 443L98 470L214 470L214 496L249 496L249 522L46 522L46 548L75 548L75 574L64 574L64 600L0 600L0 574L0 574L0 548L0 548L0 522L0 522L0 496L0 496L0 470L0 470L0 443L0 443L0 417L0 417L0 391L0 391L0 365L0 365L0 339L0 339L0 313L0 313L0 287L0 287L0 261L0 261L0 235L0 235L0 209L0 209L0 183L0 183L0 157L0 157L0 130L0 130L0 104L0 104L0 78L0 78L0 52L0 52L0 26L0 26L0 0L0 0Z" fill="#71e7c0"></path></svg>