<svg id="visual" viewBox="0 0 900 600" width="900" height="600" xmlns="http://www.w3.org/2000/svg" xmlns:xlink="http://www.w3.org/1999/xlink" version="1.1"><rect x="0" y="0" width="900" height="600" fill="#010910"></rect><path d="M0 527L6.8 516.5C13.7 506 27.3 485 41 483C54.7 481 68.3 498 82 500.3C95.7 502.7 109.3 490.3 123 478.7C136.7 467 150.3 456 164 456.7C177.7 457.3 191.3 469.7 204.8 483.3C218.3 497 231.7 512 245.2 518.8C258.7 525.7 272.3 524.3 286 509.5C299.7 494.7 313.3 466.3 327 452.3C340.7 438.3 354.3 438.7 368 438C381.7 437.3 395.3 435.7 409 449.2C422.7 462.7 436.3 491.3 450 506.5C463.7 521.7 477.3 523.3 491 518.3C504.7 513.3 518.3 501.7 532 495.8C545.7 490 559.3 490 573 489.3C586.7 488.7 600.3 487.3 614 486.5C627.7 485.7 641.3 485.3 654.8 473C668.3 460.7 681.7 436.3 695.2 441.7C708.7 447 722.3 482 736 483.8C749.7 485.7 763.3 454.3 777 436.7C790.7 419 804.3 415 818 427.7C831.7 440.3 845.3 469.7 859 482.7C872.7 495.7 886.3 492.3 893.2 490.7L900 489L900 601L893.2 601C886.3 601 872.7 601 859 601C845.3 601 831.7 601 818 601C804.3 601 790.7 601 777 601C763.3 601 749.7 601 736 601C722.3 601 708.7 601 695.2 601C681.7 601 668.3 601 654.8 601C641.3 601 627.7 601 614 601C600.3 601 586.7 601 573 601C559.3 601 545.7 601 532 601C518.3 601 504.7 601 491 601C477.3 601 463.7 601 450 601C436.3 601 422.7 601 409 601C395.3 601 381.7 601 368 601C354.3 601 340.7 601 327 601C313.3 601 299.7 601 286 601C272.3 601 258.7 601 245.2 601C231.7 601 218.3 601 204.8 601C191.3 601 177.7 601 164 601C150.3 601 136.7 601 123 601C109.3 601 95.7 601 82 601C68.3 601 54.7 601 41 601C27.3 601 13.7 601 6.8 601L0 601Z" fill="#01b276" stroke-linecap="round" stroke-linejoin="miter"></path></svg>